<svg xmlns="http://www.w3.org/2000/svg" version="1.1" xmlns:xlink="http://www.w3.org/1999/xlink" xmlns:svgjs="http://svgjs.dev/svgjs" width="1000" height="999" viewBox="0 0 1000 999"><g transform="matrix(1,0,0,1,-0.215743440233382,-0.21552769679306039)"><svg viewBox="0 0 343 343" data-background-color="#010536" preserveAspectRatio="xMidYMid meet" height="999" width="1000" xmlns="http://www.w3.org/2000/svg" xmlns:xlink="http://www.w3.org/1999/xlink"><g id="tight-bounds" transform="matrix(1,0,0,1,0.0740000000000407,0.07400000000001228)"><svg viewBox="0 0 342.85155851775386 342.85155851775386" height="342.85155851775386" width="342.85155851775386"><g><svg></svg></g><g><svg viewBox="0 0 342.85155851775386 342.85155851775386" height="342.85155851775386" width="342.85155851775386"><g><path d="M0 171.426c0-94.676 76.75-171.426 171.426-171.426 94.676 0 171.426 76.75 171.426 171.426 0 94.676-76.75 171.426-171.426 171.426-94.676 0-171.426-76.75-171.426-171.426zM171.426 334.323c89.966 0 162.898-72.932 162.897-162.897 0-89.966-72.932-162.898-162.897-162.898-89.966 0-162.898 72.932-162.898 162.898 0 89.966 72.932 162.898 162.898 162.897z" data-fill-palette-color="tertiary" fill="#fbfbf8" stroke="transparent"></path><ellipse rx="164.56874808852186" ry="164.56874808852186" cx="171.42577925887693" cy="171.42577925887693" fill="#fbfbf8" stroke="transparent" stroke-width="0" fill-opacity="1" data-fill-palette-color="tertiary"></ellipse></g><g transform="matrix(1,0,0,1,64.84655864529837,124.14231721746893)"><svg viewBox="0 0 213.1584412271571 94.56692408281599" height="94.56692408281599" width="213.1584412271571"><g><svg viewBox="0 0 213.1584412271571 94.56692408281599" height="94.56692408281599" width="213.1584412271571"><g><svg viewBox="0 0 213.1584412271571 94.56692408281599" height="94.56692408281599" width="213.1584412271571"><g><svg viewBox="0 0 213.1584412271571 94.56692408281599" height="94.56692408281599" width="213.1584412271571"><g><svg viewBox="0 0 213.1584412271571 94.56692408281599" height="94.56692408281599" width="213.1584412271571" id="textblock"><g><svg viewBox="0 0 213.1584412271571 94.56692408281599" height="94.56692408281599" width="213.1584412271571"><g transform="matrix(1,0,0,1,0,0)"><svg width="213.1584412271571" viewBox="0.5 -37.5 111.33999633789062 49.400001525878906" height="94.56692408281599" data-palette-color="#010536"><path d="M18.75-13.45Q18.75-18.6 18.25-20.38 17.75-22.15 16.3-22.15 14.85-22.15 13.7-20.28 12.55-18.4 12.55-15.25L12.55-15.25 12.55-6.1Q12.55-3.95 13.4-2.45 14.25-0.95 15.9-0.95 17.55-0.95 18.15-3.15 18.75-5.35 18.75-10.85L18.75-10.85 18.75-13.45ZM0.6-23.8L12.45-23.8 12.45-19.85Q14.4-24.3 19.35-24.3L19.35-24.3Q23.65-24.3 26.03-21.2 28.4-18.1 28.4-11.8 28.4-5.5 25.83-2.5 23.25 0.5 18.1 0.5L18.1 0.5Q15.7 0.5 14.5-0.1 13.3-0.7 12.55-1.95L12.55-1.95 12.55 11 19 11 19 11.9 0.5 11.9 0.5 11 3.25 11 3.25-22.9 0.6-22.9 0.6-23.8ZM41.9-11.75L41.9-11.75 43.35-11.75 43.35-15.6Q43.35-20.35 42.82-21.98 42.3-23.6 40.8-23.6L40.8-23.6Q39.9-23.6 39.17-23.13 38.45-22.65 38.45-21.83 38.45-21 38.75-20.15L38.75-20.15 40-20.15Q40.4-19.1 40.4-17.63 40.4-16.15 39.15-15.08 37.9-14 36-14L36-14Q31.7-14 31.7-18.15L31.7-18.15Q31.7-24.3 42.15-24.3L42.15-24.3Q48.1-24.3 50.37-22.28 52.65-20.25 52.65-14.85L52.65-14.85 52.65-4.7Q52.65-2.1 54.1-2.1L54.1-2.1Q55.8-2.1 56.1-7.25L56.1-7.25 56.85-7.2Q56.65-2.8 55.2-1.15 53.75 0.5 50.45 0.5L50.45 0.5Q44.45 0.5 43.55-3.2L43.55-3.2Q42.9-1.3 41.6-0.4 40.3 0.5 37.8 0.5L37.8 0.5Q30.4 0.5 30.4-5.55L30.4-5.55Q30.4-9.1 33.22-10.43 36.05-11.75 41.9-11.75ZM39.9-5.6Q39.9-3 40.17-2.25 40.45-1.5 41.22-1.5 42-1.5 42.67-2.78 43.35-4.05 43.35-6.3L43.35-6.3 43.35-10.95 43-10.95Q39.9-10.95 39.9-6.4L39.9-6.4 39.9-5.6ZM74.05-22.4L74.05-22.4Q72.2-22.4 70.8-20 69.4-17.6 69.4-14.3L69.4-14.3 69.4-0.9 72.95-0.9 72.95 0 57.35 0 57.35-0.9 60.1-0.9 60.1-22.9 57.35-22.9 57.35-23.8 69.4-23.8 69.4-19Q70.05-21.55 71.9-22.93 73.75-24.3 76.09-24.3 78.45-24.3 79.92-22.98 81.4-21.65 81.4-19.23 81.4-16.8 80.3-15.5 79.2-14.2 76.92-14.2 74.65-14.2 73.57-15.7 72.5-17.2 73.3-19.85L73.3-19.85 75.09-19.85Q76.34-22.4 74.05-22.4ZM111.84 0L97.94 0 97.94-0.9 100.24-0.9 94.59-12.5 93.64-12.25 93.64-0.9 95.94-0.9 95.94 0 81.59 0 81.59-0.9 84.34-0.9 84.34-36.6 81.39-36.6 81.39-37.5 93.64-37.5 93.64-13.25 94.44-13.55 105.69-22.9 100.99-22.9 100.99-23.8 110.84-23.8 110.84-22.9 107.34-22.9 101.39-17.85 110.04-0.9 111.84-0.9 111.84 0Z" opacity="1" transform="matrix(1,0,0,1,0,0)" fill="#010536" class="undefined-text-0" data-fill-palette-color="quaternary" id="text-0"></path></svg></g></svg></g></svg></g></svg></g></svg></g></svg></g></svg></g></svg></g><defs></defs></svg><rect width="342.85155851775386" height="342.85155851775386" fill="none" stroke="none" visibility="hidden"></rect></g></svg></g></svg>